<?xml version="1.0" encoding="UTF-8" standalone="no"?>
<svg xmlns="http://www.w3.org/2000/svg" width="250" height="250" viewBox="0 0 1254 1254" version="1.1">
  <title>Envelope with bee seal icon</title>
  <path d="M 668 670 L 668 671 L 667 672 L 667 673 L 666 674 L 666 677 L 667 678 L 667 679 L 668 680 L 668 681 L 669 681 L 671 683 L 677 683 L 678 682 L 679 682 L 681 680 L 681 679 L 682 678 L 682 673 L 680 671 L 678 671 L 677 672 L 677 673 L 675 675 L 673 675 L 672 674 L 672 670 L 671 669 L 670 669 L 669 670 Z M 561 568 L 560 569 L 560 570 L 559 571 L 559 588 L 560 589 L 560 593 L 561 594 L 561 597 L 562 598 L 562 601 L 563 602 L 563 604 L 564 605 L 564 606 L 563 607 L 561 607 L 560 608 L 555 608 L 554 609 L 551 609 L 550 610 L 547 610 L 546 611 L 544 611 L 543 612 L 541 612 L 540 613 L 539 613 L 538 614 L 536 614 L 535 615 L 534 615 L 533 616 L 532 616 L 531 617 L 530 617 L 528 619 L 527 619 L 526 620 L 525 620 L 523 622 L 522 622 L 520 624 L 519 624 L 513 630 L 513 632 L 514 633 L 514 635 L 515 636 L 515 637 L 517 639 L 517 640 L 522 645 L 522 646 L 525 649 L 526 649 L 533 656 L 534 656 L 536 658 L 537 658 L 539 660 L 540 660 L 542 662 L 543 662 L 544 663 L 545 663 L 547 665 L 548 665 L 549 666 L 550 666 L 551 667 L 553 667 L 554 668 L 555 668 L 556 669 L 558 669 L 559 670 L 560 670 L 561 671 L 564 671 L 565 672 L 568 672 L 569 673 L 573 673 L 574 674 L 595 674 L 596 675 L 596 676 L 592 680 L 592 681 L 589 684 L 589 685 L 587 687 L 587 688 L 586 689 L 586 690 L 584 692 L 584 693 L 583 694 L 583 696 L 582 697 L 582 698 L 581 699 L 581 702 L 580 703 L 580 713 L 578 715 L 577 715 L 576 716 L 575 716 L 573 718 L 572 718 L 572 719 L 570 721 L 570 724 L 569 725 L 569 726 L 570 727 L 570 730 L 573 733 L 574 733 L 575 734 L 576 734 L 577 735 L 582 735 L 583 734 L 585 734 L 586 733 L 587 733 L 588 732 L 595 739 L 596 739 L 599 742 L 600 742 L 601 743 L 602 743 L 603 744 L 604 744 L 605 745 L 607 745 L 608 746 L 609 746 L 610 747 L 613 747 L 614 748 L 617 748 L 618 749 L 623 749 L 624 750 L 639 750 L 640 749 L 646 749 L 647 748 L 651 748 L 652 747 L 655 747 L 656 746 L 658 746 L 659 745 L 661 745 L 662 744 L 664 744 L 665 743 L 666 743 L 667 742 L 668 742 L 669 741 L 670 741 L 671 740 L 672 740 L 673 739 L 674 739 L 676 737 L 677 737 L 678 736 L 679 736 L 681 734 L 682 734 L 685 731 L 686 731 L 699 718 L 699 717 L 703 713 L 703 712 L 704 711 L 704 710 L 706 708 L 706 707 L 707 706 L 707 705 L 708 704 L 708 702 L 709 701 L 709 699 L 710 698 L 710 696 L 711 695 L 711 692 L 712 691 L 712 679 L 711 678 L 711 675 L 710 674 L 710 672 L 709 671 L 709 670 L 708 669 L 708 668 L 707 667 L 707 666 L 705 664 L 705 663 L 699 657 L 698 657 L 696 655 L 695 655 L 694 654 L 693 654 L 692 653 L 691 653 L 689 651 L 692 648 L 693 648 L 695 646 L 696 646 L 697 645 L 698 645 L 699 644 L 700 644 L 701 643 L 703 645 L 703 646 L 704 647 L 705 647 L 706 648 L 711 648 L 713 646 L 713 642 L 709 638 L 707 638 L 706 637 L 699 637 L 698 638 L 696 638 L 695 639 L 694 639 L 693 640 L 692 640 L 691 641 L 690 641 L 688 643 L 687 643 L 686 644 L 685 644 L 684 643 L 684 641 L 685 640 L 685 638 L 687 636 L 687 635 L 692 630 L 693 630 L 695 632 L 696 632 L 697 633 L 698 633 L 699 634 L 700 634 L 701 633 L 702 633 L 703 632 L 704 632 L 705 631 L 705 630 L 706 629 L 706 624 L 705 623 L 705 622 L 704 621 L 703 621 L 702 620 L 695 620 L 694 621 L 693 621 L 692 622 L 691 622 L 689 624 L 688 624 L 682 630 L 682 631 L 680 633 L 680 634 L 679 635 L 679 636 L 678 637 L 678 639 L 677 640 L 677 646 L 676 647 L 672 647 L 671 646 L 659 646 L 658 647 L 656 647 L 654 645 L 654 638 L 653 637 L 653 634 L 652 633 L 652 630 L 651 629 L 651 627 L 650 626 L 650 625 L 649 624 L 649 622 L 648 621 L 648 620 L 647 619 L 647 618 L 646 617 L 646 616 L 645 615 L 645 614 L 644 613 L 644 612 L 642 610 L 642 609 L 640 607 L 640 606 L 638 604 L 638 603 L 635 600 L 635 599 L 621 585 L 620 585 L 617 582 L 616 582 L 614 580 L 613 580 L 611 578 L 610 578 L 609 577 L 608 577 L 607 576 L 606 576 L 605 575 L 604 575 L 603 574 L 602 574 L 601 573 L 599 573 L 598 572 L 597 572 L 596 571 L 594 571 L 593 570 L 591 570 L 590 569 L 586 569 L 585 568 L 580 568 L 579 567 L 565 567 L 564 568 Z M 603 682 L 604 682 L 605 683 L 605 697 L 606 698 L 606 701 L 607 702 L 607 705 L 608 706 L 608 708 L 609 709 L 609 711 L 610 712 L 610 713 L 611 714 L 611 715 L 612 716 L 612 717 L 613 718 L 613 719 L 614 720 L 614 721 L 616 723 L 616 724 L 619 727 L 619 728 L 627 736 L 628 736 L 632 740 L 631 741 L 624 741 L 623 740 L 619 740 L 618 739 L 616 739 L 615 738 L 612 738 L 611 737 L 610 737 L 609 736 L 608 736 L 607 735 L 606 735 L 604 733 L 603 733 L 596 726 L 596 725 L 594 723 L 594 722 L 593 721 L 593 719 L 592 718 L 592 715 L 591 714 L 591 707 L 592 706 L 592 702 L 593 701 L 593 698 L 594 697 L 594 696 L 595 695 L 595 693 L 596 692 L 596 691 L 598 689 L 598 688 L 601 685 L 601 684 Z M 635 660 L 636 660 L 637 661 L 636 662 L 636 665 L 635 666 L 635 683 L 636 684 L 636 688 L 637 689 L 637 691 L 638 692 L 638 695 L 639 696 L 639 697 L 640 698 L 640 700 L 641 701 L 641 702 L 642 703 L 642 704 L 644 706 L 644 707 L 645 708 L 645 709 L 648 712 L 648 713 L 660 725 L 661 725 L 663 727 L 664 727 L 666 729 L 667 729 L 668 730 L 668 731 L 667 732 L 666 732 L 665 733 L 664 733 L 663 734 L 662 734 L 661 735 L 659 735 L 658 736 L 657 736 L 656 737 L 654 737 L 653 738 L 652 738 L 650 736 L 649 736 L 648 735 L 647 735 L 646 734 L 645 734 L 642 731 L 641 731 L 637 727 L 636 727 L 630 721 L 630 720 L 627 717 L 627 716 L 625 714 L 625 713 L 624 712 L 624 711 L 622 709 L 622 707 L 621 706 L 621 705 L 620 704 L 620 703 L 619 702 L 619 699 L 618 698 L 618 695 L 617 694 L 617 676 L 618 675 L 618 672 L 619 671 L 619 669 L 621 667 L 622 667 L 624 665 L 625 665 L 626 664 L 627 664 L 628 663 L 629 663 L 630 662 L 631 662 L 632 661 L 634 661 Z M 652 656 L 658 656 L 659 655 L 668 655 L 669 656 L 674 656 L 675 657 L 678 657 L 679 658 L 681 658 L 682 659 L 684 659 L 685 660 L 686 660 L 687 661 L 688 661 L 689 662 L 690 662 L 694 666 L 695 666 L 696 667 L 696 668 L 700 672 L 700 673 L 701 674 L 701 675 L 702 676 L 702 678 L 703 679 L 703 693 L 702 694 L 702 696 L 701 697 L 701 699 L 699 701 L 686 701 L 685 702 L 684 702 L 684 705 L 685 705 L 686 706 L 688 706 L 689 707 L 694 707 L 695 708 L 695 709 L 693 711 L 693 712 L 683 722 L 682 722 L 681 723 L 679 721 L 678 721 L 677 720 L 676 720 L 674 718 L 673 718 L 671 716 L 670 716 L 666 712 L 665 712 L 660 707 L 660 706 L 657 703 L 657 702 L 655 700 L 655 699 L 654 698 L 654 697 L 653 696 L 653 695 L 652 694 L 652 693 L 651 692 L 651 691 L 650 690 L 650 687 L 649 686 L 649 682 L 648 681 L 648 670 L 649 669 L 649 665 L 650 664 L 650 660 L 651 659 L 651 657 Z M 527 633 L 528 632 L 529 632 L 531 630 L 532 630 L 533 629 L 534 629 L 535 628 L 536 628 L 537 627 L 538 627 L 539 626 L 540 626 L 541 625 L 542 625 L 543 624 L 544 624 L 545 623 L 547 623 L 548 622 L 550 622 L 551 621 L 553 621 L 554 620 L 557 620 L 558 619 L 563 619 L 564 618 L 580 618 L 581 619 L 586 619 L 587 620 L 590 620 L 591 621 L 593 621 L 594 622 L 596 622 L 597 623 L 598 623 L 599 624 L 601 624 L 602 625 L 603 625 L 604 626 L 605 626 L 606 627 L 607 627 L 609 629 L 610 629 L 612 631 L 613 631 L 615 633 L 616 633 L 620 637 L 621 637 L 631 647 L 631 648 L 629 650 L 628 650 L 627 651 L 626 651 L 625 652 L 624 652 L 623 653 L 622 653 L 620 655 L 619 655 L 618 656 L 617 656 L 615 658 L 613 658 L 612 659 L 611 659 L 610 660 L 608 660 L 607 661 L 605 661 L 604 662 L 599 662 L 598 663 L 577 663 L 576 662 L 572 662 L 571 661 L 568 661 L 567 660 L 565 660 L 564 659 L 562 659 L 561 658 L 560 658 L 559 657 L 557 657 L 556 656 L 555 656 L 554 655 L 553 655 L 551 653 L 550 653 L 549 652 L 548 652 L 546 650 L 545 650 L 542 647 L 541 647 L 537 643 L 536 643 L 527 634 Z M 570 581 L 572 579 L 583 579 L 584 580 L 587 580 L 588 581 L 590 581 L 591 582 L 592 582 L 593 583 L 595 583 L 596 584 L 597 584 L 598 585 L 599 585 L 600 586 L 601 586 L 602 587 L 603 587 L 605 589 L 606 589 L 607 590 L 608 590 L 610 592 L 611 592 L 615 596 L 616 596 L 626 606 L 626 607 L 629 610 L 629 611 L 631 613 L 631 614 L 632 615 L 632 616 L 634 618 L 634 619 L 635 620 L 635 621 L 636 622 L 636 623 L 637 624 L 637 625 L 638 626 L 638 627 L 639 628 L 639 630 L 640 631 L 640 633 L 641 634 L 641 636 L 642 637 L 642 640 L 641 641 L 628 628 L 627 628 L 623 624 L 622 624 L 620 622 L 619 622 L 617 620 L 616 620 L 614 618 L 613 618 L 612 617 L 611 617 L 609 615 L 608 615 L 607 614 L 605 614 L 604 613 L 603 613 L 602 612 L 600 612 L 599 611 L 597 611 L 596 610 L 594 610 L 593 609 L 590 609 L 589 608 L 583 608 L 582 607 L 576 607 L 575 606 L 575 604 L 574 603 L 574 600 L 573 599 L 573 596 L 572 595 L 572 592 L 571 591 L 571 585 L 570 584 Z M 131 291 L 131 292 L 130 293 L 130 294 L 128 296 L 128 297 L 127 298 L 127 300 L 126 301 L 126 302 L 125 303 L 125 305 L 124 306 L 124 308 L 123 309 L 123 312 L 122 313 L 122 939 L 123 940 L 123 944 L 124 945 L 124 947 L 125 948 L 125 950 L 126 951 L 126 952 L 127 953 L 127 954 L 128 955 L 128 956 L 129 957 L 129 958 L 131 960 L 131 961 L 134 964 L 134 965 L 139 970 L 140 970 L 143 973 L 144 973 L 146 975 L 147 975 L 148 976 L 149 976 L 150 977 L 151 977 L 152 978 L 154 978 L 155 979 L 157 979 L 158 980 L 161 980 L 162 981 L 168 981 L 169 982 L 1076 982 L 1077 981 L 1083 981 L 1084 980 L 1086 980 L 1087 979 L 1089 979 L 1090 978 L 1092 978 L 1093 977 L 1094 977 L 1096 975 L 1097 975 L 1098 974 L 1099 974 L 1101 972 L 1102 972 L 1113 961 L 1113 960 L 1114 959 L 1114 958 L 1116 956 L 1116 955 L 1117 954 L 1117 953 L 1118 952 L 1118 950 L 1119 949 L 1119 948 L 1120 947 L 1120 944 L 1121 943 L 1121 936 L 1122 935 L 1122 315 L 1121 314 L 1121 309 L 1120 308 L 1120 305 L 1119 304 L 1119 302 L 1118 301 L 1118 300 L 1117 299 L 1117 298 L 1116 297 L 1116 296 L 1115 295 L 1115 294 L 1114 293 L 1114 292 L 1111 289 L 1111 288 L 1102 279 L 1101 279 L 1098 276 L 1097 276 L 1096 275 L 1095 275 L 1094 274 L 1093 274 L 1092 273 L 1090 273 L 1089 272 L 1087 272 L 1086 271 L 1084 271 L 1083 270 L 1077 270 L 1076 269 L 169 269 L 168 270 L 163 270 L 162 271 L 159 271 L 158 272 L 156 272 L 155 273 L 153 273 L 152 274 L 151 274 L 150 275 L 149 275 L 147 277 L 146 277 L 144 279 L 143 279 L 140 282 L 139 282 L 136 285 L 136 286 Z M 615 542 L 626 542 L 627 543 L 638 543 L 639 544 L 644 544 L 645 545 L 649 545 L 650 546 L 653 546 L 654 547 L 656 547 L 657 548 L 659 548 L 660 549 L 662 549 L 663 550 L 664 550 L 665 551 L 667 551 L 668 552 L 669 552 L 670 553 L 671 553 L 672 554 L 673 554 L 674 555 L 675 555 L 676 556 L 677 556 L 678 557 L 679 557 L 680 558 L 681 558 L 683 560 L 684 560 L 685 561 L 686 561 L 688 563 L 689 563 L 692 566 L 693 566 L 696 569 L 697 569 L 704 576 L 705 576 L 708 579 L 708 580 L 715 587 L 715 588 L 718 591 L 718 592 L 721 595 L 721 596 L 723 598 L 723 599 L 724 600 L 724 601 L 726 603 L 726 604 L 727 605 L 727 606 L 728 607 L 728 608 L 729 609 L 729 610 L 730 611 L 730 612 L 731 613 L 731 615 L 732 616 L 732 617 L 733 618 L 733 620 L 734 621 L 734 622 L 735 623 L 735 625 L 736 626 L 736 628 L 737 629 L 737 632 L 738 633 L 738 636 L 739 637 L 739 641 L 740 642 L 740 648 L 741 649 L 741 675 L 740 676 L 740 682 L 739 683 L 739 687 L 738 688 L 738 691 L 737 692 L 737 694 L 736 695 L 736 698 L 735 699 L 735 700 L 734 701 L 734 703 L 733 704 L 733 705 L 732 706 L 732 708 L 731 709 L 731 710 L 730 711 L 730 712 L 729 713 L 729 714 L 728 715 L 728 716 L 727 717 L 727 718 L 726 719 L 726 720 L 724 722 L 724 723 L 723 724 L 723 725 L 721 727 L 721 728 L 719 730 L 719 731 L 716 734 L 716 735 L 709 742 L 709 743 L 702 750 L 701 750 L 696 755 L 695 755 L 692 758 L 691 758 L 688 761 L 687 761 L 685 763 L 684 763 L 683 764 L 682 764 L 680 766 L 679 766 L 678 767 L 677 767 L 676 768 L 675 768 L 674 769 L 673 769 L 672 770 L 671 770 L 670 771 L 669 771 L 668 772 L 666 772 L 665 773 L 664 773 L 663 774 L 661 774 L 660 775 L 658 775 L 657 776 L 655 776 L 654 777 L 652 777 L 651 778 L 647 778 L 646 779 L 642 779 L 641 780 L 634 780 L 633 781 L 610 781 L 609 780 L 602 780 L 601 779 L 596 779 L 595 778 L 592 778 L 591 777 L 588 777 L 587 776 L 585 776 L 584 775 L 582 775 L 581 774 L 579 774 L 578 773 L 577 773 L 576 772 L 574 772 L 573 771 L 572 771 L 571 770 L 570 770 L 569 769 L 568 769 L 567 768 L 566 768 L 565 767 L 564 767 L 563 766 L 562 766 L 560 764 L 559 764 L 558 763 L 557 763 L 555 761 L 554 761 L 551 758 L 550 758 L 548 756 L 547 756 L 541 750 L 540 750 L 531 741 L 531 740 L 525 734 L 525 733 L 522 730 L 522 729 L 520 727 L 520 726 L 518 724 L 518 723 L 516 721 L 516 720 L 515 719 L 515 718 L 514 717 L 514 716 L 513 715 L 513 714 L 512 713 L 512 712 L 511 711 L 511 710 L 510 709 L 510 708 L 509 707 L 509 706 L 508 705 L 508 703 L 507 702 L 507 700 L 506 699 L 506 697 L 505 696 L 505 694 L 504 693 L 504 690 L 503 689 L 503 685 L 502 684 L 502 680 L 501 679 L 501 673 L 500 672 L 500 651 L 501 650 L 501 644 L 502 643 L 502 639 L 503 638 L 503 635 L 504 634 L 504 631 L 505 630 L 505 628 L 506 627 L 506 625 L 507 624 L 507 622 L 508 621 L 508 619 L 509 618 L 509 617 L 510 616 L 510 614 L 511 613 L 511 612 L 512 611 L 512 610 L 513 609 L 513 608 L 514 607 L 514 606 L 515 605 L 515 604 L 517 602 L 517 601 L 519 599 L 519 598 L 521 596 L 521 595 L 523 593 L 523 592 L 527 588 L 527 587 L 544 570 L 545 570 L 549 566 L 550 566 L 552 564 L 553 564 L 555 562 L 556 562 L 558 560 L 559 560 L 561 558 L 562 558 L 563 557 L 564 557 L 565 556 L 566 556 L 567 555 L 568 555 L 569 554 L 570 554 L 571 553 L 572 553 L 573 552 L 575 552 L 576 551 L 577 551 L 578 550 L 580 550 L 581 549 L 583 549 L 584 548 L 586 548 L 587 547 L 589 547 L 590 546 L 594 546 L 595 545 L 598 545 L 599 544 L 604 544 L 605 543 L 614 543 Z M 147 318 L 148 317 L 153 322 L 154 322 L 165 333 L 166 333 L 176 343 L 177 343 L 186 352 L 187 352 L 197 362 L 198 362 L 206 370 L 207 370 L 218 381 L 219 381 L 229 391 L 230 391 L 239 400 L 240 400 L 251 411 L 252 411 L 262 421 L 263 421 L 271 429 L 272 429 L 283 440 L 284 440 L 292 448 L 293 448 L 305 460 L 306 460 L 315 469 L 316 469 L 327 480 L 328 480 L 339 491 L 340 491 L 348 499 L 349 499 L 361 511 L 362 511 L 372 521 L 373 521 L 383 531 L 384 531 L 394 541 L 395 541 L 407 553 L 408 553 L 416 561 L 417 561 L 427 571 L 428 571 L 435 578 L 436 578 L 446 588 L 447 588 L 455 596 L 456 596 L 464 604 L 465 604 L 473 612 L 474 612 L 483 621 L 484 621 L 488 625 L 488 629 L 487 630 L 487 633 L 486 634 L 486 638 L 485 639 L 485 644 L 484 645 L 484 654 L 483 655 L 483 669 L 484 670 L 484 678 L 485 679 L 485 685 L 486 686 L 486 690 L 487 691 L 487 694 L 488 695 L 488 698 L 489 699 L 489 701 L 490 702 L 490 705 L 491 706 L 491 707 L 492 708 L 492 710 L 493 711 L 493 713 L 494 714 L 494 715 L 495 716 L 495 717 L 496 718 L 496 719 L 497 720 L 497 721 L 498 722 L 498 723 L 499 724 L 499 725 L 500 726 L 500 727 L 501 728 L 501 729 L 503 731 L 503 732 L 504 733 L 504 734 L 506 736 L 506 737 L 508 739 L 508 740 L 511 743 L 511 744 L 514 747 L 514 748 L 534 768 L 535 768 L 538 771 L 539 771 L 541 773 L 542 773 L 545 776 L 546 776 L 548 778 L 549 778 L 550 779 L 551 779 L 553 781 L 554 781 L 555 782 L 556 782 L 557 783 L 558 783 L 559 784 L 560 784 L 561 785 L 562 785 L 563 786 L 564 786 L 565 787 L 566 787 L 567 788 L 569 788 L 570 789 L 571 789 L 572 790 L 574 790 L 575 791 L 577 791 L 578 792 L 580 792 L 581 793 L 583 793 L 584 794 L 587 794 L 588 795 L 591 795 L 592 796 L 596 796 L 597 797 L 603 797 L 604 798 L 615 798 L 616 799 L 629 799 L 630 798 L 639 798 L 640 797 L 646 797 L 647 796 L 651 796 L 652 795 L 655 795 L 656 794 L 659 794 L 660 793 L 662 793 L 663 792 L 665 792 L 666 791 L 668 791 L 669 790 L 670 790 L 671 789 L 673 789 L 674 788 L 675 788 L 676 787 L 677 787 L 678 786 L 680 786 L 681 785 L 682 785 L 683 784 L 684 784 L 686 782 L 687 782 L 688 781 L 689 781 L 690 780 L 691 780 L 693 778 L 694 778 L 696 776 L 697 776 L 699 774 L 700 774 L 702 772 L 703 772 L 707 768 L 708 768 L 727 749 L 727 748 L 731 744 L 731 743 L 733 741 L 733 740 L 736 737 L 736 736 L 737 735 L 737 734 L 739 732 L 739 731 L 740 730 L 740 729 L 741 728 L 741 727 L 742 726 L 742 725 L 743 724 L 743 723 L 745 721 L 745 720 L 746 719 L 746 717 L 747 716 L 747 715 L 748 714 L 748 712 L 749 711 L 749 710 L 750 709 L 750 707 L 751 706 L 751 705 L 752 704 L 752 701 L 753 700 L 753 698 L 754 697 L 754 694 L 755 693 L 755 689 L 756 688 L 756 684 L 757 683 L 757 676 L 758 675 L 758 650 L 757 649 L 757 642 L 756 641 L 756 636 L 755 635 L 755 631 L 754 630 L 754 628 L 760 622 L 761 622 L 768 615 L 769 615 L 776 608 L 777 608 L 785 600 L 786 600 L 793 593 L 794 593 L 805 582 L 806 582 L 815 573 L 816 573 L 825 564 L 826 564 L 836 554 L 837 554 L 846 545 L 847 545 L 858 534 L 859 534 L 870 523 L 871 523 L 880 514 L 881 514 L 891 504 L 892 504 L 903 493 L 904 493 L 913 484 L 914 484 L 925 473 L 926 473 L 936 463 L 937 463 L 950 450 L 951 450 L 961 440 L 962 440 L 974 428 L 975 428 L 988 415 L 989 415 L 1002 402 L 1003 402 L 1015 390 L 1016 390 L 1025 381 L 1026 381 L 1040 367 L 1041 367 L 1053 355 L 1054 355 L 1063 346 L 1064 346 L 1074 336 L 1075 336 L 1089 322 L 1090 322 L 1095 317 L 1096 317 L 1097 318 L 1097 936 L 1096 937 L 1096 939 L 1095 940 L 1095 942 L 1094 943 L 1094 944 L 1092 946 L 1092 947 L 1088 951 L 1087 951 L 1085 953 L 1084 953 L 1083 954 L 1082 954 L 1081 955 L 1080 955 L 1079 956 L 1077 956 L 1076 957 L 167 957 L 166 956 L 164 956 L 163 955 L 162 955 L 161 954 L 160 954 L 159 953 L 158 953 L 150 945 L 150 944 L 149 943 L 149 942 L 148 941 L 148 939 L 147 938 L 147 935 L 146 934 L 146 321 L 147 320 Z M 163 297 L 165 295 L 167 295 L 168 294 L 182 294 L 183 293 L 199 293 L 200 294 L 201 294 L 202 293 L 283 293 L 284 294 L 298 294 L 299 293 L 343 293 L 344 294 L 345 293 L 350 293 L 351 294 L 367 294 L 368 293 L 369 294 L 390 294 L 391 293 L 397 293 L 398 294 L 418 294 L 419 293 L 449 293 L 450 294 L 475 294 L 476 293 L 482 293 L 483 294 L 497 294 L 498 293 L 514 293 L 515 294 L 554 294 L 555 293 L 600 293 L 601 294 L 618 294 L 619 293 L 629 293 L 630 294 L 640 294 L 641 293 L 642 294 L 643 293 L 644 293 L 645 294 L 660 294 L 661 293 L 666 293 L 667 294 L 690 294 L 691 293 L 692 294 L 695 294 L 696 293 L 697 294 L 698 294 L 699 293 L 700 293 L 701 294 L 702 293 L 725 293 L 726 294 L 739 294 L 740 293 L 741 294 L 742 293 L 743 294 L 747 294 L 748 293 L 752 293 L 753 294 L 783 294 L 784 293 L 803 293 L 804 294 L 812 294 L 813 293 L 869 293 L 870 294 L 874 294 L 875 293 L 914 293 L 915 294 L 955 294 L 956 293 L 1017 293 L 1018 294 L 1043 294 L 1044 293 L 1047 293 L 1048 294 L 1075 294 L 1076 295 L 1078 295 L 1079 296 L 1080 296 L 1081 297 L 1081 298 L 1075 304 L 1074 304 L 1064 314 L 1063 314 L 1051 326 L 1050 326 L 1038 338 L 1037 338 L 1024 351 L 1023 351 L 1013 361 L 1012 361 L 1001 372 L 1000 372 L 987 385 L 986 385 L 976 395 L 975 395 L 962 408 L 961 408 L 951 418 L 950 418 L 939 429 L 938 429 L 926 441 L 925 441 L 914 452 L 913 452 L 903 462 L 902 462 L 889 475 L 888 475 L 876 487 L 875 487 L 863 499 L 862 499 L 853 508 L 852 508 L 840 520 L 839 520 L 828 531 L 827 531 L 816 542 L 815 542 L 807 550 L 806 550 L 795 561 L 794 561 L 785 570 L 784 570 L 775 579 L 774 579 L 766 587 L 765 587 L 754 598 L 753 598 L 747 604 L 746 604 L 744 602 L 744 601 L 743 600 L 743 599 L 741 597 L 741 596 L 740 595 L 740 594 L 739 593 L 739 592 L 737 590 L 737 589 L 736 588 L 736 587 L 733 584 L 733 583 L 731 581 L 731 580 L 727 576 L 727 575 L 722 570 L 722 569 L 716 563 L 715 563 L 708 556 L 707 556 L 703 552 L 702 552 L 700 550 L 699 550 L 697 548 L 696 548 L 694 546 L 693 546 L 692 545 L 691 545 L 689 543 L 688 543 L 687 542 L 686 542 L 685 541 L 684 541 L 683 540 L 682 540 L 681 539 L 680 539 L 679 538 L 678 538 L 677 537 L 676 537 L 675 536 L 674 536 L 673 535 L 671 535 L 670 534 L 669 534 L 668 533 L 666 533 L 665 532 L 663 532 L 662 531 L 659 531 L 658 530 L 656 530 L 655 529 L 651 529 L 650 528 L 646 528 L 645 527 L 640 527 L 639 526 L 630 526 L 629 525 L 615 525 L 614 526 L 605 526 L 604 527 L 598 527 L 597 528 L 593 528 L 592 529 L 589 529 L 588 530 L 585 530 L 584 531 L 581 531 L 580 532 L 578 532 L 577 533 L 575 533 L 574 534 L 573 534 L 572 535 L 570 535 L 569 536 L 568 536 L 567 537 L 565 537 L 564 538 L 563 538 L 562 539 L 561 539 L 560 540 L 559 540 L 558 541 L 557 541 L 556 542 L 555 542 L 553 544 L 552 544 L 551 545 L 550 545 L 548 547 L 547 547 L 545 549 L 544 549 L 542 551 L 541 551 L 538 554 L 537 554 L 533 558 L 532 558 L 516 574 L 516 575 L 512 579 L 512 580 L 509 583 L 509 584 L 507 586 L 507 587 L 505 589 L 505 590 L 503 592 L 503 593 L 501 595 L 501 596 L 500 597 L 500 598 L 498 600 L 498 601 L 497 602 L 489 594 L 488 594 L 480 586 L 479 586 L 470 577 L 469 577 L 459 567 L 458 567 L 449 558 L 448 558 L 438 548 L 437 548 L 427 538 L 426 538 L 417 529 L 416 529 L 405 518 L 404 518 L 396 510 L 395 510 L 384 499 L 383 499 L 374 490 L 373 490 L 363 480 L 362 480 L 350 468 L 349 468 L 340 459 L 339 459 L 330 450 L 329 450 L 317 438 L 316 438 L 308 430 L 307 430 L 297 420 L 296 420 L 286 410 L 285 410 L 275 400 L 274 400 L 264 390 L 263 390 L 252 379 L 251 379 L 242 370 L 241 370 L 231 360 L 230 360 L 220 350 L 219 350 L 208 339 L 207 339 L 198 330 L 197 330 L 187 320 L 186 320 L 172 306 L 171 306 L 163 298 Z" fill="white" fill-rule="evenodd"/>
</svg>
